<?xml version="1.0" encoding="UTF-8"?>
<svg xmlns="http://www.w3.org/2000/svg" xmlns:xlink="http://www.w3.org/1999/xlink" viewBox="0 0 80 80" width="80px" height="80px">
<g id="surface47492493">
<path style=" stroke:none;fill-rule:nonzero;fill:rgb(80.000001%,80.000001%,80.000001%);fill-opacity:1;" d="M 5 5 L 75 5 L 75 75 L 5 75 Z M 5 5 "/>
<path style=" stroke:none;fill-rule:nonzero;fill:rgb(80.000001%,80.000001%,80.000001%);fill-opacity:1;" d="M 74 6 L 74 74 L 6 74 L 6 6 L 74 6 M 76 4 L 4 4 L 4 76 L 76 76 Z M 76 4 "/>
<path style=" stroke:none;fill-rule:nonzero;fill:rgb(100%,100%,100%);fill-opacity:1;" d="M 54 74 L 54 48 L 63.859375 48 L 65.257812 38 L 54 38 L 54 31.230469 C 54 28.097656 55.402344 25.960938 59.898438 25.960938 L 66 25.957031 L 66 16.449219 C 65.007812 16.316406 61.238281 16.023438 57.277344 16.023438 C 49.011719 16.023438 44 21.070312 44 30.339844 L 44 38 L 34 38 L 34 48 L 44 48 L 44 74 Z M 54 74 "/>
</g>
</svg>
