<?xml version="1.0" encoding="UTF-8"?>
<svg xmlns="http://www.w3.org/2000/svg" xmlns:xlink="http://www.w3.org/1999/xlink" viewBox="0 0 96 96" width="96px" height="96px">
<g id="surface49880490">
<path style=" stroke:none;fill-rule:nonzero;fill:rgb(80.000001%,80.000001%,80.000001%);fill-opacity:1;" d="M 84 74 C 84 79.601562 79.601562 84 74 84 L 22 84 C 16.398438 84 12 79.601562 12 74 L 12 22 C 12 16.398438 16.398438 12 22 12 L 74 12 C 79.601562 12 84 16.398438 84 22 Z M 84 74 "/>
<path style=" stroke:none;fill-rule:nonzero;fill:rgb(100%,100%,100%);fill-opacity:1;" d="M 53.800781 60.800781 C 56.800781 60.199219 59.601562 59 62 57.398438 C 64 56.199219 64.601562 53.601562 63.398438 51.601562 C 62.199219 49.601562 59.601562 49 57.601562 50.199219 C 51.800781 53.800781 44.199219 53.800781 38.398438 50.199219 C 36.398438 49 33.800781 49.601562 32.601562 51.601562 C 31.398438 53.601562 32 56.199219 34 57.398438 C 36.601562 59 39.398438 60.199219 42.199219 60.800781 L 34.199219 68.800781 C 32.601562 70.398438 32.601562 73 34.199219 74.800781 C 35 75.601562 36 76 37.199219 76 C 38.199219 76 39.398438 75.601562 40.199219 74.800781 L 48 67 L 55.800781 74.800781 C 57.398438 76.398438 60 76.398438 61.800781 74.800781 C 63.398438 73.199219 63.398438 70.601562 61.800781 68.800781 Z M 48 20 C 40.199219 20 34 26.199219 34 34 C 34 41.800781 40.199219 48 48 48 C 55.800781 48 62 41.800781 62 34 C 62 26.199219 55.800781 20 48 20 Z M 48 40 C 44.601562 40 42 37.398438 42 34 C 42 30.601562 44.601562 28 48 28 C 51.398438 28 54 30.601562 54 34 C 54 37.398438 51.398438 40 48 40 Z M 48 40 "/>
</g>
</svg>
