<?xml version="1.0" encoding="UTF-8"?>
<svg xmlns="http://www.w3.org/2000/svg" xmlns:xlink="http://www.w3.org/1999/xlink" viewBox="0 0 100 100" width="100px" height="100px">
<g id="surface47491309">
<path style=" stroke:none;fill-rule:nonzero;fill:rgb(80.000001%,80.000001%,80.000001%);fill-opacity:1;" d="M 89.5625 26.3125 C 88 20.734375 84.90625 16.328125 80.375 13.210938 C 74.65625 9.265625 68.078125 7.875 62.398438 7.023438 C 54.539062 5.851562 47.421875 5.6875 40.632812 6.515625 C 34.273438 7.296875 29.484375 8.539062 25.117188 10.546875 C 16.554688 14.484375 11.414062 20.851562 9.84375 29.46875 C 9.078125 33.65625 8.5625 37.4375 8.265625 41.046875 C 7.578125 49.390625 8.203125 56.773438 10.171875 63.617188 C 12.09375 70.289062 15.445312 75.054688 20.421875 78.1875 C 21.6875 78.984375 23.3125 79.5625 24.882812 80.117188 C 25.773438 80.429688 26.640625 80.734375 27.351562 81.070312 C 28.007812 81.375 28.007812 81.429688 28 81.976562 C 27.945312 86.71875 28 96.015625 28 96.015625 L 28.015625 98 L 31.578125 98 L 32.15625 97.4375 C 32.539062 97.078125 41.367188 88.546875 44.515625 85.109375 L 44.945312 84.632812 C 45.484375 84.007812 45.484375 84.007812 46.039062 84 C 50.289062 83.914062 54.632812 83.75 58.945312 83.515625 C 64.171875 83.234375 70.226562 82.726562 75.929688 80.351562 C 81.148438 78.171875 84.960938 74.710938 87.25 70.070312 C 89.640625 65.226562 91.054688 59.984375 91.585938 54.039062 C 92.523438 43.585938 91.859375 34.515625 89.5625 26.3125 Z M 70.765625 66.960938 C 69.453125 69.09375 67.5 70.578125 65.195312 71.539062 C 63.507812 72.242188 61.789062 72.09375 60.125 71.390625 C 46.195312 65.492188 35.265625 56.203125 28.046875 42.84375 C 26.554688 40.09375 25.523438 37.09375 24.335938 34.1875 C 24.09375 33.59375 24.109375 32.890625 24 32.234375 C 24.101562 27.539062 27.703125 24.890625 31.34375 24.09375 C 32.734375 23.78125 33.96875 24.273438 35 25.265625 C 37.859375 27.984375 40.117188 31.148438 41.820312 34.695312 C 42.5625 36.25 42.226562 37.625 40.960938 38.78125 C 40.695312 39.023438 40.421875 39.242188 40.132812 39.460938 C 37.242188 41.632812 36.820312 43.28125 38.359375 46.554688 C 40.984375 52.125 45.34375 55.867188 50.976562 58.1875 C 52.460938 58.796875 53.859375 58.492188 54.992188 57.289062 C 55.148438 57.132812 55.320312 56.976562 55.429688 56.789062 C 57.648438 53.085938 60.875 53.453125 63.851562 55.5625 C 65.804688 56.953125 67.703125 58.421875 69.632812 59.835938 C 72.578125 62 72.554688 64.03125 70.765625 66.960938 Z M 52.289062 30 C 51.632812 30 50.976562 30.054688 50.328125 30.164062 C 49.234375 30.34375 48.210938 29.609375 48.023438 28.515625 C 47.84375 27.429688 48.578125 26.398438 49.671875 26.21875 C 50.53125 26.070312 51.414062 26 52.289062 26 C 60.953125 26 68 33.046875 68 41.710938 C 68 42.59375 67.929688 43.476562 67.78125 44.328125 C 67.617188 45.304688 66.773438 46 65.8125 46 C 65.703125 46 65.59375 45.992188 65.476562 45.96875 C 64.390625 45.789062 63.65625 44.757812 63.835938 43.671875 C 63.945312 43.03125 64 42.375 64 41.710938 C 64 35.257812 58.742188 30 52.289062 30 Z M 62 42 C 62 43.101562 61.101562 44 60 44 C 58.898438 44 58 43.101562 58 42 C 58 38.695312 55.304688 36 52 36 C 50.898438 36 50 35.101562 50 34 C 50 32.898438 50.898438 32 52 32 C 57.515625 32 62 36.484375 62 42 Z M 73.421875 46.445312 C 73.210938 47.375 72.382812 48 71.46875 48 C 71.320312 48 71.171875 47.984375 71.023438 47.953125 C 69.945312 47.703125 69.273438 46.632812 69.515625 45.554688 C 69.804688 44.28125 69.953125 42.960938 69.953125 41.632812 C 69.953125 31.914062 62.039062 24 52.320312 24 C 50.992188 24 49.671875 24.148438 48.398438 24.4375 C 47.320312 24.6875 46.25 24.007812 46.007812 22.929688 C 45.757812 21.851562 46.4375 20.78125 47.515625 20.539062 C 49.078125 20.179688 50.695312 20 52.320312 20 C 64.25 20 73.953125 29.703125 73.953125 41.632812 C 73.953125 43.257812 73.773438 44.875 73.421875 46.445312 Z M 73.421875 46.445312 "/>
</g>
</svg>
