<?xml version="1.0" encoding="UTF-8"?>
<svg xmlns="http://www.w3.org/2000/svg" xmlns:xlink="http://www.w3.org/1999/xlink" viewBox="0 0 60 60" width="60px" height="60px">
<g id="surface49878377">
<path style=" stroke:none;fill-rule:nonzero;fill:rgb(80.000001%,80.000001%,80.000001%);fill-opacity:1;" d="M 30 6 C 16.746094 6 6 16.746094 6 30 C 6 43.253906 16.746094 54 30 54 C 43.253906 54 54 43.253906 54 30 C 54 16.746094 43.253906 6 30 6 Z M 42.722656 37.933594 L 38.984375 37.984375 C 38.984375 37.984375 38.179688 38.144531 37.125 37.414062 C 35.726562 36.457031 34.410156 33.957031 33.382812 34.28125 C 32.339844 34.613281 32.371094 36.863281 32.371094 36.863281 C 32.371094 36.863281 32.378906 37.257812 32.140625 37.515625 C 31.882812 37.792969 31.378906 37.765625 31.378906 37.765625 L 29.703125 37.765625 C 29.703125 37.765625 26.011719 38.070312 22.757812 34.679688 C 19.214844 30.980469 16.082031 23.683594 16.082031 23.683594 C 16.082031 23.683594 15.898438 23.222656 16.09375 22.988281 C 16.316406 22.726562 16.914062 22.71875 16.914062 22.71875 L 20.914062 22.699219 C 20.914062 22.699219 21.289062 22.765625 21.5625 22.964844 C 21.785156 23.128906 21.910156 23.4375 21.910156 23.4375 C 21.910156 23.4375 22.554688 25.074219 23.414062 26.558594 C 25.085938 29.453125 25.863281 30.085938 26.429688 29.777344 C 27.257812 29.324219 27.011719 25.6875 27.011719 25.6875 C 27.011719 25.6875 27.027344 24.367188 26.59375 23.78125 C 26.257812 23.320312 25.625 23.1875 25.351562 23.152344 C 25.125 23.121094 25.492188 22.597656 25.972656 22.363281 C 26.691406 22.011719 27.964844 21.988281 29.464844 22.003906 C 30.636719 22.015625 30.972656 22.089844 31.429688 22.199219 C 32.808594 22.535156 32.34375 23.820312 32.34375 26.910156 C 32.34375 27.902344 32.164062 29.292969 32.875 29.753906 C 33.183594 29.949219 33.933594 29.78125 35.804688 26.59375 C 36.695312 25.082031 37.359375 23.304688 37.359375 23.304688 C 37.359375 23.304688 37.507812 22.988281 37.730469 22.855469 C 37.964844 22.714844 38.277344 22.757812 38.277344 22.757812 L 42.484375 22.730469 C 42.484375 22.730469 43.75 22.578125 43.957031 23.152344 C 44.171875 23.753906 43.484375 25.15625 41.765625 27.449219 C 38.941406 31.21875 38.625 30.867188 40.972656 33.046875 C 43.210938 35.128906 43.675781 36.140625 43.753906 36.269531 C 44.679688 37.8125 42.722656 37.933594 42.722656 37.933594 Z M 42.722656 37.933594 "/>
</g>
</svg>
