<?xml version="1.0" encoding="utf-8"?>
<!-- Generator: Adobe Illustrator 24.3.0, SVG Export Plug-In . SVG Version: 6.00 Build 0)  -->
<svg version="1.1" id="Слой_1" xmlns="http://www.w3.org/2000/svg" xmlns:xlink="http://www.w3.org/1999/xlink" x="0px" y="0px"
	 viewBox="0 0 1721.9 1014.1" style="enable-background:new 0 0 1721.9 1014.1;" xml:space="preserve">
<style type="text/css">
	.st0{display:none;}
	.st1{display:inline;fill:#32549C;stroke:#09294A;stroke-width:6;stroke-miterlimit:10;}
	.st2{display:inline;fill:#AB34AB;}
	.st3{display:inline;fill:#0073E6;}
	.st4{display:inline;fill:#00E5E5;}
	.st5{display:inline;fill:#33A833;}
	.st6{display:inline;fill:#FFFF03;}
	.st7{display:inline;fill:#EA7F01;}
	.st8{fill:#32549C;stroke:#09294A;stroke-width:6;stroke-miterlimit:10;}
	.st9{fill:#AB34AB;}
	.st10{fill:#0073E6;}
	.st11{fill:#00E5E5;}
	.st12{fill:#33A833;}
	.st13{fill:#DEDE03;}
	.st14{fill:#EA7F01;}
	.st15{fill:#FF0000;}
	.st16{fill:#FF0000;stroke:#09294A;stroke-width:6;stroke-miterlimit:10;}
</style>
<g id="Слой_9" class="st0">
	<path class="st1" d="M698.5,292.5l-16.6-31.6c-0.8-1.5-2.3-2.4-4-2.4h-10.8c-1.7,0-3.3,1-4,2.5l-15.6,31.9c-0.8,1.5-2.3,2.5-4,2.5
		h-3.6c-2.5,0-4.5,2.1-4.5,4.6l0.3,17c0,2.5,2,4.4,4.5,4.4c2,0,4.4,0,6.8,0c4.3,0,8.6,0,10.8,0c1,0,1.9-0.3,2.7-0.9l5.6-4.2
		c0.8-0.6,1.7-0.9,2.7-0.9h11.8c1.1,0,2.1,0.4,2.9,1.1l4.5,3.9c0.8,0.7,1.8,1.1,2.9,1.1h8.5h5.2c2.5,0,4.5-2,4.5-4.5v-17.5
		c0-2.5-2-4.5-4.5-4.5h-2.2C700.8,294.9,699.3,293.9,698.5,292.5z M672.8,306.4L672.8,306.4c-5.2,0-9.5-4.2-9.5-9.3v-8.3
		c0-5.2,4.2-9.3,9.5-9.3l0,0c5.2,0,9.5,4.2,9.5,9.3v8.3C682.3,302.2,678.1,306.4,672.8,306.4z"/>
</g>
<g id="Слой_11" class="st0">
	<path class="st1" d="M763.6,258.4h-28.7c-10.3,0-18.7,8.4-18.7,18.7v25.7c0,10.3,8.4,18.7,18.7,18.7h28.7
		c10.3,0,18.7-8.4,18.7-18.7v-25.7C782.3,266.8,773.9,258.4,763.6,258.4z M759.3,291.3c0,4.8-3.8,8.6-8.6,8.6h-2.8
		c-4.8,0-8.6-3.8-8.6-8.6v-2.8c0-4.8,3.8-8.6,8.6-8.6h2.8c4.8,0,8.6,3.8,8.6,8.6V291.3z"/>
</g>
<g id="Слой_10" class="st0">
	<path class="st1" d="M789.3,315.8V259c0-1.5,1.2-2.6,2.7-2.6h15.9c1,0,1.9,0.5,2.4,1.3l12.2,20.8c0.5,0.8,1.4,1.3,2.4,1.3h2
		c0.9,0,1.8-0.4,2.3-1.2l14.6-21.2c0.5-0.7,1.4-1.2,2.3-1.2h12.2c1.5,0,2.7,1.2,2.7,2.6v56.8c0,1.5-1.2,2.6-2.7,2.6h-14.8
		c-1.5,0-2.7-1.2-2.7-2.6v-15.3c0-2.7-3.8-3.6-5.1-1.2l-7.5,13.9c-0.5,0.9-1.4,1.4-2.4,1.4h-3.7c-1,0-2-0.6-2.4-1.5l-7.1-13.6
		c-1.3-2.5-5.2-1.6-5.2,1.2v15.2c0,1.5-1.2,2.6-2.7,2.6h-12.5C790.5,318.4,789.3,317.2,789.3,315.8z"/>
</g>
<g id="Слой_12" class="st0">
	<path class="st1" d="M959.2,256.4h-47.8c-2.8,0-5.1,2.2-5.1,5v15.3c0,2.7,2.3,5,5.1,5h9.8c2.8,0,5.1,2.2,5.1,5v29.9
		c0,2.7,2.3,5,5.1,5h10.8c2.8,0,5.1-2.2,5.1-5v-29.9c0-2.7,2.3-5,5.1-5h6.8c2.8,0,5.1-2.2,5.1-5v-15.3
		C964.3,258.6,962,256.4,959.2,256.4z"/>
</g>
<g id="Слой_13" class="st0">
	<path class="st1" d="M1018.9,256.4h-28.6c-10.3,0-18.7,8.6-18.7,19.3v26.5c0,10.6,8.4,19.3,18.7,19.3h28.7
		c10.3,0,18.7-8.6,18.7-19.3v-26.5C1037.6,265,1029.2,256.4,1018.9,256.4z M1014.6,290.4c0,4.9-3.8,8.9-8.6,8.9h-2.8
		c-4.8,0-8.6-4-8.6-8.9v-2.9c0-4.9,3.8-8.9,8.6-8.9h2.8c4.8,0,8.6,4,8.6,8.9V290.4z"/>
</g>
<g id="Слой_15" class="st0">
	<path class="st1" d="M1097.3,256.4h-44.9c-3.9,0-7.1,3.2-7.1,7.1v50.7c0,3.9,3.2,7.1,7.1,7.1h10.1c3.9,0,7.1-3.1,7.1-7l0.1-6.5
		c0.1-3.9,3.2-7,7.1-7h20.4c3.9,0,7.1-3.2,7.1-7.1v-30.2C1104.5,259.6,1101.3,256.4,1097.3,256.4z M1080.3,284.3h-6
		c-2.8,0-5-2.2-5-5l0,0c0-2.8,2.2-5,5-5h6c2.8,0,5,2.2,5,5l0,0C1085.3,282,1083.1,284.3,1080.3,284.3z"/>
</g>
<g id="Слой_14" class="st0">
	<path class="st1" d="M1111.6,262.1v53.6c0,3.2,2.6,5.7,5.9,5.7h10.9c3.2,0,5.9-2.5,5.9-5.7v-27.8c0-3.2,2.7-5.7,6-5.7l17.1,0.2
		c3.3,0,6-2.5,6-5.7v-14.6c0-3.1-2.6-5.7-5.9-5.7h-39.9C1114.2,256.4,1111.6,258.9,1111.6,262.1z"/>
</g>
<g id="Слой_16" class="st0">
	<path class="st1" d="M1218.2,256.4h-28.7c-10.3,0-18.7,8.6-18.7,19.3v26.5c0,10.6,8.4,19.3,18.7,19.3h28.7
		c10.3,0,18.7-8.6,18.7-19.3v-26.5C1236.8,265,1228.5,256.4,1218.2,256.4z M1213.8,290.4c0,4.9-3.8,8.9-8.6,8.9h-2.8
		c-4.8,0-8.6-4-8.6-8.9v-2.9c0-4.9,3.8-8.9,8.6-8.9h2.8c4.8,0,8.6,4,8.6,8.9V290.4z"/>
</g>
<g id="Слой_18" class="st0">
	<path class="st1" d="M1295.5,291.4c-2.3-1.5-3.2-4.6-1.7-7.1c1.8-3,3.6-7.5,3.6-13.6c0-9.4-8.3-13.1-11.1-14.1
		c-0.6-0.2-1.1-0.3-1.7-0.3l-34,0.2c-3.6,0-6.5,3-6.5,6.7V316c0,2.9,2.3,5.2,5.1,5.2h40.2c0.5,0,0.9-0.1,1.3-0.2
		c2.7-0.8,11.6-4.3,11.6-16.5C1302.3,297.5,1298.7,293.6,1295.5,291.4z M1258.1,272.4c0-2,1.6-3.7,3.6-3.7h11.2c3,0,5.5,2.5,5.5,5.7
		s-2.5,5.7-5.5,5.7h-11.2c-2,0-3.6-1.6-3.6-3.7V272.4z M1282.7,303.7c0,2.8-2.2,5.1-5,5.1H1263c-2.6,0-4.7-2.2-4.7-4.8v-1.6
		c0-2.7,2.1-4.8,4.7-4.8h14.7c2.8,0,5,2.3,5,5.1V303.7z"/>
</g>
<g id="Слой_17" class="st0">
	<path class="st1" d="M1309.8,309.2l27.2-49.8c1-1.8,2.9-3,4.9-3h0.8c2.2,0,4.1,1.2,5.1,3.2l24.5,50c0.7,1.5,0.8,3.1,0.2,4.7
		l-1.2,3.3c-0.8,2.3-2.9,3.8-5.3,3.8h-3.1c-1.9,0-3.8-1-4.8-2.7l-12-19.5c-2.3-3.7-7.5-3.6-9.7,0.1l-11.4,19.2
		c-1,1.7-2.9,2.8-4.9,2.8h-3.8c-2.2,0-4.1-1.2-5.1-3.2l-1.7-3.6C1308.8,312.9,1308.9,310.9,1309.8,309.2z"/>
</g>
<g id="Слой_19" class="st0">
	<path class="st1" d="M1380.5,261.5v55c0,2.7,2.1,4.9,4.8,4.9h10.3c1.4,0,2.8-0.7,3.7-1.8l19.4-24c2.9-3.5,8.5-1.4,8.4,3.2
		l-0.2,17.6c0,2.7,2.1,5,4.8,5h10.3c2.6,0,4.8-2.2,4.8-4.9v-55.2c0-2.7-2.2-5-4.8-4.9l-12.4,0.2c-1.4,0-2.7,0.7-3.6,1.7l-17.3,20.8
		c-2.9,3.5-8.4,1.3-8.4-3.2l0.1-14.5c0-2.8-2.2-5-4.8-4.9l-10.3,0.1C1382.6,256.6,1380.5,258.8,1380.5,261.5z"/>
</g>
<g id="Слой_1_1_" class="st0">
</g>
<g id="Слой_26" class="st0">
	<path class="st2" d="M658.3,916.4c133-76.2,261.2-89.2,437-171c226.1-105.2,525-43,525-43s-296.9-97.5-540-28
		c-189.2,54.1-296,106-467,148c-216,53-569,109-569,109l242,165C286.3,1096.4,549,979,658.3,916.4z"/>
</g>
<g id="Слой_25" class="st0">
	<path class="st3" d="M631.5,931.6c133-76.2,323-67.4,498.8-149.2c226.1-105.2,500-80,500-80s-281.7-71-526-6
		c-188.2,50.1-341.1,109.7-521,162c-199.4,58-502,118-502,118l205,120C286.3,1096.4,522.2,994.2,631.5,931.6z"/>
</g>
<g id="Слой_24" class="st0">
	<path class="st4" d="M631.5,983.6c133-76.2,312.1-143,487.8-224.8c226.1-105.2,510.9-56.4,510.9-56.4s-280.4-50-523,21
		c-188.2,55.1-337,113-527,170c-198.9,59.7-466,115-466,115l234,120C348.3,1128.4,522.2,1046.2,631.5,983.6z"/>
</g>
<g id="Слой_23" class="st0">
	<path class="st5" d="M640.5,1026.6c133-76.2,296.1-156,471.8-237.8c226.1-105.2,517.9-86.4,517.9-86.4s-288.9-47.4-525,43
		c-188,72-191,76-404,149c-196.4,67.3-561,148-561,148l261,132C401.3,1174.4,531.2,1089.2,640.5,1026.6z"/>
</g>
<g id="Слой_22" class="st0">
	<path class="st6" d="M640.5,1069.6c133-76.2,342.1-145,517.8-226.8c226.1-105.2,471.9-140.4,471.9-140.4s-253.1-23.6-493,56
		c-183.6,60.9-379,150-545,206c-196.8,66.4-434,113-434,113l296,106C454.3,1183.4,531.2,1132.2,640.5,1069.6z"/>
</g>
<g id="Слой_21" class="st0">
	<path class="st7" d="M668.5,1102.1c133-76.2,314.1-155,489.9-236.8c226.1-105.2,464.9-162.9,464.9-162.9s-241.1-3.6-481,76
		c-183.6,60.9-228,85-403,149c-195,71.3-529,183-529,183l251,87C461.3,1197.4,559.2,1164.7,668.5,1102.1z"/>
</g>
<g id="Слой_5" class="st0">
	<path class="st1" d="M983,369.4h-38.4c-5.7,0-10.3,4.7-10.3,10.6v14.4c-16.4-12-35.5-18.9-56-18.9c-60.8,0-110,60.7-110,135.5
		c0,74.8,49.2,135.5,110,135.5c20.5,0,39.6-6.9,56-18.9v308.1c0,5.8,4.6,10.6,10.3,10.6H983c5.7,0,10.3-4.7,10.3-10.6V380
		C993.3,374.1,988.7,369.4,983,369.4z M879.3,573.7c-29.8,0-54-29.7-54-66.2s24.2-66.2,54-66.2s54,29.7,54,66.2
		C933.3,544.1,909.1,573.7,879.3,573.7z"/>
</g>
<g>
	<g id="Слой_32">
		<g>
			<path class="st8" d="M746.7,118.4c0,4.5-2.6,6.8-7.9,6.8h-4.6c-0.2,0-0.5,0-1,0s-0.8,0-1,0c-0.3,0-0.6,0-1,0s-0.8,0-1,0h-33
				c-0.7,0.3-1.5,0.4-2.4,0.4c-0.3,0-0.8-0.1-1.5-0.2s-1-0.2-1-0.2c-3.3,0-5.1,0-5.3,0c-2.2-0.2-3.8-0.9-4.9-2
				c-1.3-1.3-1.9-2.9-1.9-4.9c0-4.4,2.6-6.6,7.9-6.6h2.1l15.9-40.3c1.6-4.1,4-6.2,7.3-6.2c3.1,0,5.4,2,7,6l16.3,40.5h1.9
				C744,111.7,746.7,114,746.7,118.4z M722.1,111.7l-8.7-22.8l-8.6,22.8H722.1z"/>
			<path class="st8" d="M818.5,95.5c0,9.1-2.6,16.6-7.8,22.3s-12.3,8.6-21.3,8.6s-16.2-2.9-21.5-8.8c-5.1-5.6-7.7-13-7.7-22.1
				c0-9.2,2.5-16.6,7.6-22.3c5.3-5.9,12.5-8.8,21.6-8.8s16.2,2.9,21.5,8.8C816,78.9,818.5,86.3,818.5,95.5z M804,95.5
				c0-5.2-1.1-9.5-3.3-12.8c-2.6-3.9-6.4-5.8-11.3-5.8s-8.7,2-11.3,5.9c-2.3,3.3-3.4,7.5-3.4,12.7s1.1,9.4,3.4,12.7
				c2.6,3.7,6.4,5.6,11.3,5.6c4.9,0,8.6-1.9,11.2-5.7C802.9,104.8,804,100.6,804,95.5z"/>
			<path class="st8" d="M901.8,119.1c0,1.9-0.7,3.5-2,4.7s-3,1.8-4.9,1.8c-3.9,0-6.2-2.3-6.9-7l-4.4-28.3h-0.2l-9.2,29.5
				c-1.2,3.9-3.6,5.8-7.2,5.8c-3.7,0-6.1-1.9-7.4-5.8l-9.3-29.5h-0.2l-3.8,26.3c-0.9,6-3.4,9-7.6,9c-1.8,0-3.4-0.6-4.7-1.8
				s-2-2.7-2-4.4c0-1,0.2-2.9,0.7-5.7l6.7-38.4c0.6-3.4,1.5-5.8,2.6-7.3c1.5-1.9,3.8-2.8,6.9-2.8c2.9,0,5.1,1,6.5,3.1
				s2.7,4.9,3.9,8.6l7.5,23.3h0.3l8-25.4c0.8-2.7,2.1-5,3.9-7.1c1.4-1.7,3.4-2.5,6-2.5c2.4,0,4.4,0.8,6,2.2s2.7,3.5,3.1,5.8
				l7.1,40.9C901.7,116.2,901.8,117.8,901.8,119.1z"/>
			<path class="st8" d="M990.2,72c0,4.1-2.3,6.1-7,6.1h-7.6v40.3c0,4.8-2.3,7.2-6.8,7.2s-6.8-2.4-6.8-7.2V78.1h-7.4
				c-4.7,0-7-2-7-6.2s2.3-6.2,7-6.2h28.6C987.9,65.7,990.2,67.8,990.2,72z"/>
			<path class="st8" d="M1062,95.5c0,9.1-2.6,16.6-7.8,22.3c-5.2,5.7-12.3,8.6-21.3,8.6c-9,0-16.2-2.9-21.5-8.8
				c-5.1-5.6-7.7-13-7.7-22.1c0-9.2,2.5-16.6,7.6-22.3c5.3-5.9,12.5-8.8,21.6-8.8c9.1,0,16.2,2.9,21.5,8.8
				C1059.5,78.9,1062,86.3,1062,95.5z M1047.5,95.5c0-5.2-1.1-9.5-3.3-12.8c-2.6-3.9-6.4-5.8-11.3-5.8s-8.7,2-11.3,5.9
				c-2.3,3.3-3.4,7.5-3.4,12.7s1.1,9.4,3.4,12.7c2.6,3.7,6.4,5.6,11.3,5.6s8.6-1.9,11.2-5.7C1046.4,104.8,1047.5,100.6,1047.5,95.5z
				"/>
			<path class="st8" d="M1119.2,86.2c0,5.8-1.8,10.5-5.2,14.2s-8.1,5.5-13.8,5.5h-11.1v12.4c0,2.1-0.6,3.9-1.8,5.2
				c-1.2,1.3-2.8,2-4.9,2c-4.5,0-6.8-2.4-6.8-7.3v-46c0-1.9,0.7-3.5,2-4.8c1.3-1.2,3-1.8,5-1.8h15.5c6.3,0,11.4,1.8,15.3,5.5
				C1117.3,74.9,1119.2,79.9,1119.2,86.2z M1105.2,86c0-5.5-3-8.2-8.9-8.2h-7.3V94h7.8c2.3,0,4.3-0.8,5.9-2.2
				C1104.4,90.3,1105.2,88.4,1105.2,86z"/>
			<path class="st8" d="M1170.4,73.2c0,1.7-0.5,3.2-1.5,4.5c-1,1.2-2.3,1.8-4,1.8h-18.7V118c0,4.7-2.2,7.1-6.7,7.1s-6.8-2.3-6.8-7
				V74.9c0-0.2,0-0.5,0-0.8s0-0.6,0-0.8c0-1.3,0.4-2.6,1.3-4.1c1.1-1.8,2.9-2.7,5.6-2.7c0.2,0,0.6,0,1.1-0.1s0.9-0.2,1.2-0.2
				c0.1,0,0.2,0,0.3,0h0.2h24.3c0.1,0,0.8,0.8,2.2,2.4C1169.9,69.9,1170.4,71.4,1170.4,73.2z"/>
			<path class="st8" d="M1241.2,95.5c0,9.1-2.6,16.6-7.8,22.3c-5.2,5.7-12.3,8.6-21.3,8.6s-16.2-2.9-21.5-8.8
				c-5.1-5.6-7.7-13-7.7-22.1c0-9.2,2.5-16.6,7.6-22.3c5.3-5.9,12.5-8.8,21.6-8.8s16.2,2.9,21.5,8.8
				C1238.7,78.9,1241.2,86.3,1241.2,95.5z M1226.7,95.5c0-5.2-1.1-9.5-3.3-12.8c-2.6-3.9-6.4-5.8-11.3-5.8s-8.7,2-11.3,5.9
				c-2.3,3.3-3.4,7.5-3.4,12.7s1.1,9.4,3.4,12.7c2.6,3.7,6.4,5.6,11.3,5.6s8.6-1.9,11.2-5.7C1225.6,104.8,1226.7,100.6,1226.7,95.5z
				"/>
			<path class="st8" d="M1298.8,107.4c0,5.8-2,10.3-6,13.4c-3.6,2.9-8.4,4.3-14.4,4.3h-17c-2,0-3.6-0.7-4.8-2s-1.8-2.9-1.8-4.8v-46
				c0-4.4,2.2-6.6,6.7-6.6h16.2c4.5,0,8.4,1.4,11.6,4.3s4.8,6.5,4.8,11c0,5.1-2.3,8.9-7,11.5c3.7,0.7,6.7,2.3,8.8,5
				S1298.8,103.6,1298.8,107.4z M1274.4,77.8h-6.2v11.1h6c4.3,0,6.4-1.9,6.4-5.6C1280.6,79.7,1278.6,77.8,1274.4,77.8z
				 M1284.8,106.9c0-4.1-2.8-6.1-8.4-6.1h-8.2V113h8.7C1282.2,113,1284.8,111,1284.8,106.9z"/>
			<path class="st8" d="M1363,119.1c0,1.8-0.7,3.3-2,4.5s-2.9,1.8-4.7,1.8c-3.4,0-5.8-2-7.3-6L1337.4,89l-11.6,30.8
				c-1.5,3.8-3.8,5.7-7,5.7c-1.9,0-3.5-0.6-4.9-1.8s-2.1-2.7-2.1-4.6c0-0.8,0.4-2.2,1.2-4.1l17-43.5c1.7-4.1,4.1-6.2,7.4-6.2
				c3.1,0,5.4,2,7,6l17.4,43.3C1362.6,116.5,1363,118,1363,119.1z"/>
			<path class="st8" d="M1428.2,118.6c0,4.7-2.3,7-7,7c-2,0-3.6-0.7-4.8-2s-1.8-3-1.8-5V90.3h-0.1l-25.1,31.2
				c-0.9,1.1-2,2.2-3.4,3.2c-1,0.6-2.2,1-3.6,1c-1.8,0-3.3-0.6-4.6-1.8c-1.3-1.2-1.9-2.7-1.9-4.5V73.2c0-5.2,2.1-7.8,6.4-7.8
				c2.1,0,3.8,0.6,5.2,1.8s1.9,2.9,1.9,5v28.7l25.1-31.3c2.3-2.8,4.5-4.2,6.8-4.2c2.1,0,3.8,0.7,5,2.1c1.2,1.4,1.8,3.2,1.8,5.4
				L1428.2,118.6L1428.2,118.6z"/>
		</g>
	</g>
	<g id="Слой_20">
		<g>
			<path class="st9" d="M1658.9,464.7c0,0-190.5,21.5-408.5,89.4c-180.6,56.3-350.6,150.9-502,210.4
				c-129.1,50.8-251.6,71.2-251.6,71.2l-286.9-70.4c0,0,203.6-17.7,438.5-93.2c204.1-65.6,411.5-146,600.3-182.9
				C1476.8,444.6,1658.9,464.7,1658.9,464.7z"/>
		</g>
	</g>
	<g id="Слой_20_копия_2">
		<g>
			<path class="st10" d="M1658.9,464.7c0,0-195.9,25.2-415.2,98.4c-180,60.1-346.7,159.3-495.2,221.6c-125.9,52.8-245,74-245,74
				l-275.6-71.8c0,0,194.2-18.6,420.8-97.1c198.7-68.8,402.2-153.5,590.4-193.9C1469.4,446.6,1658.9,464.7,1658.9,464.7z"/>
		</g>
	</g>
	<g id="Слой_20_копия_3">
		<g>
			<path class="st11" d="M1658.9,464.7c0,0-202.5,29.7-423.9,109.2c-179.6,64.5-343.3,168.7-488.7,234
				c-122.4,55-237.9,76.9-237.9,76.9l-263.5-73c0,0,184.5-19.6,402.1-101c193.2-72.3,392.8-161.8,580.8-206.3
				C1460.9,449.2,1658.9,464.7,1658.9,464.7z"/>
		</g>
	</g>
	<g id="Слой_20_копия_4">
		<g>
			<path class="st12" d="M1658.9,464.7c0,0-208.7,34.1-431.2,119.6c-178.5,68.6-338.4,177.9-480.4,246
				c-118.8,57.1-230.6,79.4-230.6,79.4l-250.9-76.1c0,0,174.6-19.9,383-103.9c187-75.4,381.8-169.4,568.5-217.5
				C1452.3,451.7,1658.9,464.7,1658.9,464.7z"/>
		</g>
	</g>
	<g id="Слой_5__x28_копия_x29_">
		<path class="st8" d="M1011.6,172.7h-38.4c-5.7,0-10.3,4.7-10.3,10.6v14.4c-16.4-12-35.6-18.9-56-18.9c-60.8,0-110,60.7-110,135.5
			s49.2,135.5,110,135.5c20.5,0,39.6-6.9,56-18.9c0,0,0,163.2,0,252c0,2.2,0,4.3,0,6.3c2,16.3-7,38.3,3,46.3c15,11,47-7,55-29
			c0.8-3,1.4-6,1.9-9.1c2.2-15.2,0-30.8-0.8-45.4c-0.1-2.2-0.1-4.5-0.1-6.8c0-158.4,0-462.1,0-462.1
			C1021.9,177.4,1017.3,172.7,1011.6,172.7z M907.9,377c-29.8,0-54-29.7-54-66.2s24.2-66.2,54-66.2c29.8,0,54,29.7,54,66.2
			C961.9,347.3,937.7,377,907.9,377z"/>
	</g>
	<g id="Слой_20_копия_5">
		<g>
			<path class="st13" d="M1658.9,464.7c0,0-214.6,39.4-439.7,131.2c-178.7,72.9-336.7,186.4-476.3,257
				c-116.1,58.7-224.8,81.9-224.8,81.9l-242.2-74.9c0,0,167.6-21.3,369.4-108.1c183-78.7,375.4-177.2,562.3-229.6
				C1445.7,455.4,1658.9,464.7,1658.9,464.7z"/>
		</g>
	</g>
	<g id="Слой_20__x28_копия_x29_">
		<g>
			<path class="st14" d="M1658.7,464.8c0,0-223.3,44.5-450.4,144.8c-177.1,78.2-330.1,198.9-464.5,272.8
				C633.2,943.2,530,965.7,530,965.7l-227.4-83.2c0,0,155.5-19.8,345.1-108.9c174.8-82.2,360.9-186.8,546.2-243.6
				C1434.6,456.3,1658.7,464.8,1658.7,464.8z"/>
		</g>
	</g>
	<g id="Слой_20_копия_6">
		<g>
			<path class="st15" d="M1658.9,464.7c0,0-224.9,50.8-451,156C1032.1,702.5,881.1,825.4,748,901.5
				c-109.3,62.6-211.2,87.2-211.2,87.2l-222-77c0,0,151.8-23,338-115c172-85,355.4-192.5,539.1-253.4
				C1431.9,463.7,1658.9,464.7,1658.9,464.7z"/>
		</g>
	</g>
	<g id="Слой_2_1_">
		<path class="st16" d="M164.3,48.5c-6.7,1.6-11.5,7.6-11.5,14.5v88c0,11.1,11.6,18.3,21.6,13.4c69.9-34.9,286.3-129.9,292.4,26
			c0,0.8,0,1.6-0.1,2.4c-8.4,68.6-79.3,92.6-146.9,99.8l89.4-157.7c3.9-6.8-1.1-15.3-8.9-15.3h-83.1c-6.4,0-12.2,3.4-15.4,9
			L210,292.5c-0.6,0-1.1-0.1-1.7-0.2c-8.4-0.8-15.9,5.5-16.4,14l-1.2,20.5L35.9,603.1c-4.6,8.1-2,18.4,5.8,23.4l49.4,31.9
			c8.5,5.5,19.9,2.7,24.9-6.1l151.2-267c112.7,5.7,305.6-12.4,305.6-202.7C577.4-31,232.3,32.3,164.3,48.5z"/>
	</g>
	<g id="Слой_4">
		<path class="st8" d="M777.7,167.7h-39.5c-5.7,0-10.2,4.6-10.2,10.2v15.8c-15.7-10.2-33.8-16.1-53-16.1c-60.8,0-110,58.2-110,130
			s49.2,130,110,130c19.2,0,37.3-5.8,53-16.1v10.8c0,5.7,4.6,10.2,10.2,10.2h39.5c5.7,0,10.2-4.6,10.2-10.2V177.9
			C787.9,172.2,783.3,167.7,777.7,167.7z M675.4,372.2c-29.8,0-54-28.2-54-63s24.2-63,54-63s54,28.2,54,63S705.2,372.2,675.4,372.2z
			"/>
	</g>
	<g id="Слой_3">
		<path class="st8" d="M1243.3,172.7h-31.9c-5.8,0-10.6,4.7-10.6,10.5v136.3c-3.4,12.6-10.6,28.9-26,41.3
			c-21.5,13.9-52.6,9.1-65-7.1c-14.7-19.2-14.3-60.6-15.1-99.1c-0.6-29.3-1.3-56.8-1.7-71.3c-0.2-5.9-5-10.7-10.8-10.7h-37
			c-5.8,0-10.4,4.7-10.5,10.5c-0.1,17.7-0.2,54.7,0.1,88.6c0.4,43.6,3,99.1,29,127.4c39.4,61.6,120.4,34,137,23.9v316
			c0,5.8,4.7,10.6,10.6,10.6h31.9c5.8,0,10.6-4.7,10.6-10.6V183.2C1253.9,177.4,1249.2,172.7,1243.3,172.7z"/>
	</g>
	<g id="Слой_6">
		<path class="st8" d="M1375.6,168.4c24.1,4,91,20,90,88c0.4,24.7-10,54-55,73c-49,10-84,11.2-84,29c2,21,28,25,57,21
			c27-9,31.2-27.8,35.6-37c2.4-4.9,8.2-7,13.2-4.9l29.8,12.7c4.5,1.9,7.1,6.8,6,11.6c-4.9,21.6-24.6,77.5-99.5,81.5
			c-53.2,9.1-101-52.6-101-82c0-16,6-49,42-71c51-28,83-5,100-38c-2-14-23-24-41-23c-21,0-43.9,20.7-54.7,32
			c-3.7,3.9-9.8,4.3-13.9,1l-25.1-20.1c-4.3-3.4-5.1-9.5-2-14C1285.8,209.6,1322,166,1375.6,168.4z"/>
	</g>
	<g id="Слой_7">
		<path class="st8" d="M1682.7,165.7h-39.5c-5.7,0-10.2,4.6-10.2,10.2v15.8c-15.7-10.2-33.8-16.1-53-16.1c-60.8,0-110,58.2-110,130
			s49.2,130,110,130c19.2,0,37.3-5.8,53-16.1v10.8c0,5.7,4.6,10.2,10.2,10.2h39.5c5.7,0,10.2-4.6,10.2-10.2V175.9
			C1692.9,170.2,1688.3,165.7,1682.7,165.7z M1580.4,370.2c-29.8,0-54-28.2-54-63s24.2-63,54-63s54,28.2,54,63
			S1610.2,370.2,1580.4,370.2z"/>
	</g>
</g>
<g id="Слой_34" class="st0">
	
		<image style="display:inline;overflow:visible;enable-background:new    ;" width="699" height="750" xlink:href="AFA65850.png"  transform="matrix(0.6999 0 0 0.6999 181.3192 23.4149)">
	</image>
</g>
</svg>
